<mxfile host="app.diagrams.net" modified="2023-07-20T06:44:27.976Z" agent="Mozilla/5.0 (Macintosh; Intel Mac OS X 10_15_7) AppleWebKit/537.36 (KHTML, like Gecko) Chrome/114.0.0.0 Safari/537.36" version="21.6.3" etag="1f26W09BTu7fy776EJnV" type="github">
  <diagram name="Page-1" id="14i5VFxNlAN5_VBxOHZW">
    <mxGraphModel>
      <root>
        <mxCell id="0" />
        <mxCell id="1" parent="0" />
      </root>
    </mxGraphModel>
  </diagram>
</mxfile>
